<?xml version="1.0" standalone="no"?>
<!DOCTYPE svg PUBLIC "-//W3C//DTD SVG 20010904//EN"
 "http://www.w3.org/TR/2001/REC-SVG-20010904/DTD/svg10.dtd">
<svg version="1.0" xmlns="http://www.w3.org/2000/svg"
 width="920.000000pt" height="540.000000pt" viewBox="0 0 920.000000 540.000000"
 preserveAspectRatio="xMidYMid meet">
<metadata>
Created by potrace 1.16, written by Peter Selinger 2001-2019
</metadata>
<g transform="translate(0.000000,540.000000) scale(0.100000,-0.100000)"
fill="#000000" stroke="none">
<path d="M2936 5199 c-15 -61 -25 -114 -22 -117 3 -3 2 -10 -3 -16 -10 -11
-13 -25 -186 -746 -59 -245 -129 -533 -155 -640 -26 -107 -46 -197 -44 -199 2
-2 213 -54 468 -116 282 -67 461 -106 454 -98 -6 7 -9 15 -7 17 2 2 60 18 129
36 69 18 128 36 132 40 5 3 -43 18 -105 33 -61 15 -206 49 -322 77 -115 28
-241 58 -278 66 -58 14 -70 20 -78 42 -23 64 -67 139 -106 182 l-41 46 18 80
c18 76 184 776 236 995 l25 106 69 27 c47 19 84 43 122 79 30 29 43 43 29 32
-14 -11 -28 -23 -31 -26 -16 -19 -48 -27 -60 -16 -12 10 -12 9 -2 -4 12 -16 7
-29 -10 -29 -5 0 -7 4 -4 8 2 4 0 14 -6 22 -8 12 -9 11 -4 -4 5 -14 2 -17 -10
-12 -8 3 -18 6 -21 6 -3 0 1 8 8 18 12 15 12 16 -2 5 -9 -7 -20 -9 -25 -5 -4
4 -3 0 4 -9 10 -14 9 -17 -8 -22 -20 -5 -39 8 -20 15 5 1 -2 8 -16 15 -21 10
-24 10 -14 -2 8 -10 8 -14 -2 -18 -9 -4 -7 -6 4 -6 9 -1 20 -5 23 -11 4 -6 -5
-9 -19 -8 -28 3 -28 3 -30 47 0 16 -4 32 -8 36 -3 4 -5 -1 -4 -12 4 -21 -12
-45 -25 -37 -5 3 -9 2 -8 -3 1 -4 1 -15 0 -23 -1 -13 -3 -13 -10 -1 -11 16 5
55 18 47 4 -3 8 1 8 8 0 17 -31 14 -33 -2 -1 -7 -2 -17 -3 -23 0 -5 -5 -8 -11
-4 -5 3 -8 11 -6 18 1 7 1 9 -1 5 -11 -19 -23 -6 -13 12 6 11 8 25 5 30 -3 6
-1 10 5 10 6 0 9 4 5 10 -3 5 1 39 10 76 8 37 14 69 11 71 -2 2 -16 -46 -30
-108z"/>
<path d="M4447 4607 c-172 -96 -306 -284 -358 -504 -18 -73 -20 -109 -16 -213
3 -71 12 -151 21 -185 18 -65 71 -179 91 -195 17 -14 147 21 151 41 1 8 7 39
13 69 6 30 13 69 16 85 2 17 9 45 14 63 5 18 6 30 1 27 -10 -6 -36 34 -32 48
1 5 -2 6 -8 2 -7 -4 -2 -17 11 -36 18 -26 20 -35 10 -55 -6 -14 -12 -39 -12
-57 l-1 -32 -7 35 c-4 19 -12 43 -18 54 -9 16 -11 17 -16 2 -4 -10 -3 -15 2
-12 11 7 21 -17 21 -51 0 -22 -4 -25 -25 -21 -13 3 -23 2 -21 -1 3 -3 -1 -14
-8 -23 -12 -16 -14 -15 -26 10 -38 82 -52 143 -57 248 -5 100 -3 121 21 205
38 132 94 226 188 313 67 62 77 77 83 115 3 24 11 54 16 68 5 14 8 27 6 29 -1
2 -29 -11 -60 -29z"/>
<path d="M3467 4496 c-178 -48 -247 -283 -124 -422 122 -140 342 -117 430 44
36 67 43 125 23 193 -22 77 -89 157 -130 157 -5 0 -12 5 -15 10 -3 6 -20 13
-36 17 -29 6 -29 5 5 -11 19 -10 38 -18 42 -18 20 -3 28 -23 14 -35 -12 -10
-17 -9 -25 7 -6 11 -19 22 -30 25 -22 5 -46 -15 -33 -28 4 -5 1 -5 -6 -1 -9 5
-9 13 -2 26 9 16 7 18 -12 14 -43 -10 -78 -12 -73 -4 3 5 -1 11 -7 13 -8 4 -7
6 4 6 9 1 18 -2 21 -6 2 -5 2 -2 0 6 -2 10 6 12 31 9 19 -2 32 0 30 4 -7 11
-51 9 -107 -6z"/>
<path d="M5111 4480 c1 -8 0 -22 -3 -30 -35 -103 -35 -102 -11 -155 54 -120
68 -282 38 -415 -22 -96 -33 -118 -66 -129 -32 -11 -38 -26 -13 -35 10 -4 13
-2 8 6 -5 8 -2 9 9 5 11 -4 17 -1 17 9 0 8 5 12 10 9 6 -4 8 -10 5 -15 -3 -5
-1 -12 5 -15 7 -4 10 3 8 21 -3 25 1 28 57 43 56 15 61 19 74 56 11 28 15 85
15 190 1 167 -9 216 -70 340 -35 71 -87 143 -83 115z"/>
<path d="M6250 4450 c0 -3 37 -15 82 -26 l81 -19 34 -80 c41 -101 87 -159 117
-151 155 43 196 53 202 47 4 -3 4 0 0 6 -4 7 0 42 9 78 9 36 14 71 12 77 -3 8
-6 7 -6 -4 -1 -14 -22 -28 -51 -33 -3 0 -22 -4 -42 -8 -21 -5 -40 -8 -43 -8
-2 0 -24 -7 -47 -15 -24 -9 -50 -17 -58 -19 -8 -2 -15 -4 -15 -5 0 -1 -11 -4
-25 -6 -23 -4 -28 2 -51 62 l-26 67 -87 21 c-47 12 -86 19 -86 16z"/>
<path d="M7250 4264 c0 -5 6 -29 14 -54 7 -25 12 -55 11 -67 -1 -12 2 -20 7
-17 4 3 9 -4 9 -15 2 -33 4 -39 12 -47 4 -4 7 -12 7 -18 -1 -6 -10 0 -20 13
-11 13 -20 19 -20 13 0 -5 7 -15 15 -22 8 -7 12 -17 9 -22 -7 -11 -40 32 -36
46 2 5 -3 4 -11 -2 -10 -9 -17 -9 -27 1 -12 10 -12 9 -4 -3 11 -17 11 -26 -1
-53 -6 -15 -10 -16 -16 -5 -11 17 -11 31 0 24 10 -7 9 20 -2 30 -4 4 -1 14 6
23 11 14 10 14 -6 2 -12 -9 -15 -17 -8 -24 11 -11 -23 -67 -41 -67 -6 0 -4 8
5 18 15 17 15 18 -6 19 -17 2 -19 0 -7 -7 14 -9 7 -14 -13 -11 -5 1 -6 -2 -3
-7 2 -4 1 -14 -5 -22 -6 -10 -9 -11 -9 -2 0 6 -8 12 -18 12 -11 0 -27 9 -37
20 -10 11 -22 17 -26 14 -5 -3 -9 0 -9 7 0 7 -3 10 -6 6 -10 -10 -75 44 -67
56 4 6 1 7 -6 2 -21 -13 37 -63 123 -106 43 -21 87 -39 97 -39 11 0 21 -6 23
-12 2 -7 29 -103 59 -213 73 -261 168 -601 223 -793 l43 -154 -39 -52 c-33
-44 -86 -144 -103 -196 -3 -11 -75 -36 -223 -78 -430 -121 -925 -261 -972
-276 l-49 -14 -27 94 -27 93 39 65 c137 227 135 544 -3 792 -50 89 -125 177
-198 230 -60 44 -156 99 -162 92 -6 -6 7 -58 14 -54 3 2 7 -15 8 -38 2 -33 8
-46 34 -66 156 -122 230 -235 274 -419 25 -104 17 -239 -21 -341 -15 -41 -28
-91 -28 -111 0 -21 -6 -36 -13 -36 -7 0 -9 5 -6 10 9 14 9 87 1 87 -8 0 -12
-17 -9 -34 1 -5 -5 -4 -13 4 -20 16 -20 6 0 -24 10 -17 12 -26 4 -31 -6 -3
-10 -3 -9 2 3 19 -2 34 -9 29 -5 -3 -9 0 -10 7 -1 17 -7 38 -19 67 -6 14 -10
41 -9 62 0 20 -2 34 -6 32 -3 -2 -8 1 -10 8 -3 7 -7 5 -11 -6 -4 -10 -3 -15 3
-11 6 4 10 -5 9 -22 -2 -30 19 -112 47 -190 4 -10 8 -25 9 -33 1 -8 12 -50 24
-93 12 -43 24 -86 26 -95 2 -9 11 -39 19 -67 14 -43 20 -70 29 -130 1 -5 -7
-8 -17 -7 -18 3 -19 2 -5 -15 13 -17 13 -17 -4 -4 -16 12 -16 16 -2 31 13 14
13 17 0 17 -8 0 -12 -4 -9 -8 2 -4 0 -10 -6 -14 -5 -3 -10 0 -11 7 0 7 -7 -2
-15 -20 -8 -18 -11 -38 -7 -45 4 -7 -8 0 -25 15 -26 22 -104 64 -127 68 -3 0
-22 7 -44 15 -22 7 -42 11 -45 8 -3 -4 -6 -2 -6 3 0 6 -10 11 -22 11 -13 1
-32 4 -43 6 -11 3 -38 6 -60 6 l-40 1 -23 78 c-56 184 -104 349 -108 369 -2
12 -9 32 -14 45 -8 18 -8 14 -4 -17 4 -22 11 -48 16 -58 5 -11 5 -32 -2 -55
-12 -44 -13 -68 -2 -58 7 8 9 13 11 43 2 27 12 8 15 -31 2 -20 0 -39 -5 -42
-5 -3 -8 -2 -7 3 2 4 0 9 -4 11 -5 1 -8 0 -8 -3 0 -3 0 -19 0 -36 0 -16 3 -28
8 -26 4 3 8 -11 9 -31 l2 -37 -13 38 c-20 54 -27 126 -17 170 6 23 5 37 -1 37
-5 0 -7 4 -3 9 3 5 1 12 -4 15 -5 3 -7 15 -4 25 3 10 1 21 -4 24 -5 3 -8 -7
-7 -24 1 -16 -3 -32 -8 -36 -7 -4 -9 4 -6 21 3 15 3 24 0 21 -3 -2 -12 1 -21
8 -14 10 -14 10 -5 -3 11 -14 28 -70 29 -95 0 -5 3 -15 7 -20 3 -6 9 -30 13
-54 l6 -45 -38 29 c-143 106 -234 258 -263 438 -21 127 -3 250 55 391 6 15 5
17 -5 11 -8 -5 -11 -4 -7 2 6 9 -2 44 -20 93 -4 8 -5 21 -4 28 8 51 -66 -67
-100 -158 -132 -363 38 -809 371 -972 64 -31 68 -35 80 -81 7 -27 11 -49 9
-51 -2 -1 -30 -8 -61 -15 -32 -7 -58 -17 -58 -22 0 -6 -4 -8 -9 -5 -5 3 -24 3
-42 -2 -21 -4 50 -9 181 -13 234 -6 259 -11 348 -72 l44 -29 456 130 c252 72
664 190 917 262 253 72 468 133 477 136 13 4 15 10 8 22 -8 15 -57 183 -180
622 -100 355 -331 1154 -335 1159 -3 2 -5 0 -5 -5z"/>
<path d="M6663 3444 c3 -3 23 -5 46 -6 23 0 41 -5 41 -12 0 -6 5 -4 11 4 9 13
10 13 6 0 -2 -8 -9 -15 -14 -15 -6 0 -15 -3 -19 -7 -4 -5 -12 -8 -18 -8 -5 0
-1 7 10 15 18 14 18 14 -3 8 -13 -3 -23 -11 -23 -19 0 -7 -4 -15 -9 -18 -5 -4
-7 2 -4 13 3 10 0 22 -6 25 -7 4 -9 1 -5 -8 4 -11 0 -14 -15 -11 -12 2 -19 0
-16 -6 4 -5 10 -7 14 -5 4 3 8 -1 8 -9 0 -11 -4 -12 -13 -4 -31 25 -87 9 -69
-21 3 -5 4 -10 1 -10 -3 0 -10 10 -17 21 -9 17 -8 20 3 14 7 -5 10 -5 6 0 -11
12 29 38 45 29 9 -5 9 -4 0 6 -9 10 -17 9 -42 -6 -30 -18 -34 -34 -17 -64 7
-12 6 -13 -4 -3 -11 10 -17 10 -29 0 -9 -6 -7 -1 4 12 14 17 16 23 5 19 -8 -2
-28 -26 -45 -53 -24 -39 -30 -61 -33 -120 -6 -115 42 -200 140 -249 132 -66
301 -7 357 124 78 180 -45 370 -237 369 -35 0 -62 -3 -59 -5z"/>
<path d="M3915 3259 c-52 -17 -81 -32 -83 -43 -2 -9 -7 -16 -12 -16 -4 0 -6
-10 -2 -22 3 -15 2 -19 -7 -14 -6 4 -11 4 -10 -1 4 -22 -2 -43 -11 -38 -6 4
-7 -1 -3 -11 4 -12 3 -15 -5 -10 -8 5 -10 1 -5 -11 6 -15 5 -16 -9 -5 -14 11
-16 10 -11 -10 4 -18 3 -20 -6 -8 -9 12 -11 10 -9 -10 2 -16 -2 -24 -10 -22
-8 1 -11 -2 -7 -7 3 -6 -3 -15 -14 -20 -25 -14 -34 -14 -26 -1 4 6 3 9 -2 8
-7 -3 -13 5 -13 17 0 3 9 1 20 -5 14 -7 20 -7 20 0 0 5 -7 10 -16 10 -14 0
-14 3 -4 15 7 9 10 18 6 22 -3 3 -6 0 -6 -7 0 -9 -7 -7 -22 6 -13 10 -18 12
-12 4 9 -13 11 -31 4 -45 -4 -8 -7 -24 -9 -42 0 -9 -4 -14 -7 -11 -11 12 -11
43 0 58 9 12 8 13 -4 4 -20 -14 -39 -12 -50 6 -6 9 -10 10 -10 3 0 -6 4 -14 9
-17 5 -4 8 -14 6 -24 -2 -9 -4 -21 -4 -25 -1 -5 -8 -2 -16 7 -17 17 -20 30 -5
21 6 -3 10 -1 10 4 0 18 -17 12 -34 -11 -9 -13 -14 -17 -11 -10 4 7 1 19 -5
27 -7 8 -10 22 -6 30 3 9 2 14 -3 11 -5 -3 -11 7 -14 22 -8 41 -45 159 -46
144 -1 -13 19 -86 149 -542 32 -113 71 -251 86 -307 22 -79 33 -103 46 -103
10 0 51 -11 93 -24 41 -13 75 -21 75 -17 0 4 -11 45 -26 92 -14 46 -61 209
-105 362 l-80 278 35 39 c39 43 90 138 100 186 7 29 12 32 106 59 55 16 100
30 100 32 0 7 -51 -4 -125 -28z"/>
<path d="M4430 2810 c-16 -4 0 -6 40 -4 44 2 71 -2 84 -11 18 -13 17 -14 -10
-12 -21 1 -28 -2 -26 -12 3 -12 0 -12 -12 -1 -19 15 -21 24 -4 14 7 -4 8 -3 4
5 -4 6 -12 9 -17 5 -5 -3 -7 -9 -4 -14 9 -15 -19 -28 -40 -19 -18 9 -18 9 2 5
13 -2 26 0 29 5 3 6 -13 8 -40 6 -31 -2 -54 -11 -74 -29 -16 -14 -40 -31 -53
-38 -23 -11 -23 -11 -4 5 11 9 19 21 17 26 -1 6 2 8 8 4 5 -3 10 -2 10 3 0 6
15 19 33 31 17 11 27 21 21 21 -18 0 -87 -54 -115 -91 -34 -46 -49 -92 -49
-153 1 -99 47 -177 132 -225 134 -77 299 -28 365 107 72 147 0 322 -151 367
-53 16 -105 18 -146 5z"/>
<path d="M1448 2158 c-14 -11 -15 -22 -7 -68 5 -30 36 -379 69 -775 34 -396
63 -730 65 -742 4 -18 12 -23 38 -23 43 1 522 76 536 84 6 4 11 13 11 21 0 13
24 18 165 31 102 9 102 10 110 109 l7 85 43 0 c69 0 195 -20 257 -41 31 -10
110 -44 175 -75 65 -31 143 -67 173 -81 30 -14 105 -49 165 -78 181 -86 205
-96 217 -89 6 4 8 3 5 -2 -5 -9 33 -29 203 -108 41 -18 192 -89 335 -156 313
-147 432 -200 448 -199 7 0 -5 7 -26 16 -35 14 -36 16 -20 30 16 13 16 13 -5
3 -26 -13 -66 -4 -56 12 4 7 2 8 -4 4 -7 -4 -18 -4 -24 1 -13 8 -19 10 -40 12
-7 0 -3 8 8 17 18 15 18 15 -3 5 -26 -13 -36 -14 -29 -3 2 4 -15 14 -40 21
-25 8 -43 16 -40 18 10 11 95 10 89 0 -4 -6 -1 -7 7 -2 10 6 12 4 6 -10 -5
-14 -4 -15 7 -7 9 8 23 6 52 -8 57 -27 117 -52 135 -55 8 -2 42 -9 75 -17 56
-14 206 -25 195 -15 -3 2 -43 7 -90 10 -91 7 -184 30 -265 67 -27 12 -138 64
-246 116 -210 99 -317 150 -414 194 -33 15 -127 59 -210 97 -82 39 -179 84
-215 101 -67 31 -185 87 -370 174 -58 28 -135 60 -172 73 -70 24 -232 49 -282
43 -28 -3 -28 -4 -11 -18 10 -8 16 -10 13 -5 -4 6 9 10 32 10 28 0 36 -3 29
-12 -7 -7 -6 -14 2 -19 7 -4 9 -3 5 4 -3 6 -2 13 3 16 8 5 117 -12 201 -32
l35 -8 -28 -6 c-15 -3 -30 -2 -32 2 -3 4 -14 10 -25 13 -11 3 -18 1 -14 -4 3
-5 12 -9 20 -9 8 0 12 -5 9 -10 -5 -8 -11 -8 -20 0 -8 6 -19 10 -27 9 -32 -4
-47 2 -42 16 4 8 1 15 -5 15 -6 0 -10 -5 -9 -11 2 -6 -3 -14 -10 -16 -8 -3
-10 2 -6 14 5 17 5 17 -6 0 -6 -9 -16 -17 -23 -17 -8 0 -8 3 -2 8 6 4 11 13
13 21 3 12 1 12 -13 1 -25 -21 -65 -22 -66 -2 0 14 -2 13 -9 -3 -6 -13 -9 -15
-9 -5 -1 13 -2 13 -11 0 -8 -12 -10 -12 -11 5 l0 20 -9 -20 c-5 -12 -9 72 -10
210 -2 226 -7 283 -12 135 -2 -56 -6 -74 -16 -72 -8 1 -11 -2 -7 -8 3 -6 11
-8 16 -5 16 11 10 -7 -8 -22 -14 -11 -15 -14 -3 -10 22 7 23 -26 1 -40 -15 -9
-17 -5 -17 46 -3 224 -9 213 -14 -29 -4 -157 -10 -302 -14 -322 -8 -36 -9 -37
-65 -43 -31 -3 -77 -8 -103 -10 l-46 -5 -6 82 c-3 46 -12 214 -21 373 -22 399
-55 724 -86 837 -11 44 -20 49 -129 84 -179 56 -431 84 -472 52z m297 -74
c159 -33 249 -74 229 -105 -3 -5 -1 -9 3 -9 5 0 10 -10 10 -22 2 -18 0 -20 -7
-8 -5 8 -10 11 -10 6 0 -5 -8 -2 -17 5 -15 12 -16 12 -10 -3 3 -10 -1 -22 -11
-29 -14 -11 -15 -11 -5 0 13 15 6 44 -8 35 -5 -3 -7 -9 -4 -14 3 -4 -3 -14
-13 -21 -15 -13 -16 -12 -4 3 8 9 9 19 4 22 -10 6 -27 -22 -23 -37 1 -5 -4 -5
-10 -2 -8 5 -8 10 0 18 16 16 14 32 -2 18 -8 -6 -18 -7 -22 -3 -5 4 -5 -1 -2
-10 3 -10 2 -20 -4 -23 -5 -4 -9 -3 -8 2 3 20 -2 34 -11 28 -6 -4 -7 -12 -3
-18 3 -7 -3 -3 -15 7 -26 23 -29 11 -4 -18 17 -21 17 -21 -5 -2 -21 18 -28 15
-23 -9 1 -5 -2 -7 -6 -2 -4 4 -9 18 -11 30 -2 18 -1 19 7 7 8 -11 9 -7 4 15
-9 38 -14 44 -14 16 0 -12 -4 -20 -9 -16 -6 3 -8 15 -6 27 3 11 1 17 -3 14 -4
-4 -7 -12 -7 -17 0 -5 -4 -9 -10 -9 -5 0 -10 4 -10 9 0 5 -3 13 -7 17 -4 3 -6
-3 -3 -14 2 -12 0 -24 -6 -27 -5 -4 -9 0 -9 7 0 9 -3 9 -10 -2 -5 -8 -10 -19
-10 -25 0 -5 5 -3 10 5 9 13 10 13 10 0 0 -13 1 -13 10 0 9 13 10 13 10 0 0
-13 1 -13 10 0 9 13 10 13 10 0 0 -13 1 -13 10 0 8 12 9 10 7 -7 -2 -12 -7
-26 -11 -30 -4 -5 -6 -3 -4 4 2 6 -1 10 -7 10 -5 -1 -9 -5 -8 -9 1 -3 -5 -12
-15 -20 -15 -11 -16 -11 -4 3 10 13 9 19 -5 30 -15 12 -16 12 -10 -3 3 -10 1
-20 -5 -24 -6 -4 -8 -3 -5 2 3 6 2 16 -4 24 -7 13 -9 13 -10 0 -1 -8 -1 -19 0
-25 1 -5 -8 1 -19 14 -13 15 -20 18 -20 9 0 -8 6 -20 13 -28 10 -12 9 -12 -4
-2 -9 7 -19 21 -22 31 -4 15 1 18 24 16 16 -1 29 1 29 6 0 5 -5 9 -11 9 -5 0
-7 5 -4 10 4 6 12 7 18 4 7 -4 8 -3 4 2 -5 5 -12 9 -15 9 -4 0 -14 4 -22 10
-12 7 -13 6 -3 -7 16 -19 5 -32 -14 -16 -8 6 -13 7 -11 2 2 -5 -1 -10 -7 -11
-5 -2 -10 1 -10 6 0 5 -3 12 -7 16 -3 4 -5 -1 -4 -12 4 -25 -5 -38 -15 -22 -4
8 -6 -7 -5 -34 4 -50 -5 -58 -10 -10 -2 16 -8 67 -14 115 -7 48 -8 92 -5 99 9
13 124 5 230 -17z m1084 -1219 c16 -8 31 -12 34 -9 3 3 8 0 13 -7 5 -9 1 -11
-14 -7 -13 4 -20 2 -16 -4 3 -5 16 -8 27 -7 12 2 33 -3 47 -11 14 -8 29 -13
33 -12 5 1 5 -3 1 -9 -4 -8 0 -9 16 -4 15 5 20 4 16 -4 -4 -6 -1 -12 6 -12 46
-4 79 -19 72 -31 -5 -8 -1 -9 10 -5 11 5 15 3 10 -5 -5 -7 -2 -9 9 -5 9 3 41
-9 78 -31 34 -20 70 -36 80 -36 9 1 30 -9 46 -22 15 -13 22 -23 16 -24 -7 0
-13 5 -13 10 0 6 -5 10 -11 10 -5 0 -8 -4 -5 -8 3 -5 -1 -9 -9 -9 -8 0 -13 5
-12 11 1 5 -7 11 -18 13 -16 3 -17 2 -5 -6 20 -14 7 -14 -25 1 -15 7 -24 17
-21 25 6 14 -9 19 -17 6 -2 -5 -2 -2 -1 5 2 6 -4 12 -12 12 -8 0 -12 -4 -9
-10 3 -5 2 -10 -4 -10 -5 0 -13 5 -16 10 -3 6 -1 10 4 10 6 0 11 4 11 8 0 5
-16 7 -36 5 -20 -1 -44 2 -53 7 -12 8 -8 8 14 4 17 -4 27 -3 23 1 -6 6 -41 12
-86 14 -7 1 -10 6 -7 11 4 6 10 8 14 6 4 -3 13 -1 20 3 10 6 9 10 -4 14 -9 4
-13 3 -10 -3 3 -5 0 -7 -8 -4 -8 3 -18 1 -21 -5 -8 -12 -36 -3 -36 11 0 6 6 6
14 -1 9 -8 16 -8 20 -2 8 12 -30 25 -45 15 -8 -4 -9 -3 -5 4 4 7 1 12 -9 12
-9 0 -13 -4 -10 -10 3 -5 -7 -2 -24 7 -16 10 -27 21 -24 26 3 5 -4 6 -16 2
-14 -4 -21 -3 -19 6 2 7 -11 12 -34 13 -20 1 -40 4 -43 8 -4 4 9 5 29 4 42 -4
44 -1 15 15 -12 6 -19 7 -16 2 3 -5 -10 -9 -29 -9 -19 0 -34 4 -34 10 0 5 3 7
6 4 3 -3 17 -2 32 2 15 5 28 9 30 9 2 1 16 -6 31 -14z"/>
<path d="M6724 1370 c-26 -24 -58 -43 -85 -49 -196 -48 -331 -106 -484 -210
-92 -63 -161 -91 -224 -91 -101 0 -334 -48 -469 -96 -108 -39 -82 -38 42 1
128 41 228 61 392 80 137 15 190 35 289 109 108 82 311 169 442 191 42 7 104
47 130 85 20 29 13 25 -33 -20z"/>
<path d="M7070 1081 c-25 -15 -92 -54 -150 -86 -58 -32 -130 -73 -160 -90 -30
-17 -102 -58 -160 -90 -58 -33 -143 -81 -190 -108 -98 -56 -322 -167 -395
-195 -27 -11 -86 -34 -130 -52 -44 -17 -235 -85 -425 -152 -190 -66 -396 -138
-458 -160 -62 -22 -143 -46 -180 -54 -60 -12 -62 -13 -16 -9 28 3 92 18 142
34 51 16 92 26 92 24 0 -3 7 0 15 7 8 6 20 8 26 4 7 -4 9 -3 6 3 -4 6 2 13 13
16 11 3 23 1 26 -4 3 -5 13 -8 22 -8 15 1 15 2 -1 6 -9 2 -15 9 -12 14 10 15
62 10 76 -8 12 -15 12 -16 -3 -10 -10 3 -18 3 -18 -1 0 -7 -54 -31 -72 -32 -4
0 -29 -10 -55 -21 -25 -11 -53 -17 -60 -15 -8 3 -12 2 -9 -3 7 -11 -22 -23
-35 -15 -5 3 -9 0 -9 -5 0 -6 3 -11 7 -11 21 0 273 94 273 102 0 5 5 6 10 3
15 -10 51 5 44 17 -5 7 -1 9 9 5 22 -8 506 158 779 268 10 4 15 11 12 16 -3 5
1 6 9 3 8 -3 73 25 143 62 71 36 143 73 159 82 17 8 140 78 275 155 135 77
257 147 273 154 15 8 25 19 21 24 -3 5 -10 7 -15 4 -5 -4 -9 -1 -9 4 0 14 13
14 27 0 8 -8 30 -1 82 27 38 21 68 41 65 46 -3 4 -12 1 -20 -7 -9 -8 -22 -15
-30 -15 -8 0 -14 -4 -14 -9 0 -4 -10 -8 -22 -7 -13 0 -22 -4 -21 -10 1 -6 -9
-11 -22 -11 -48 0 -24 34 52 73 40 21 73 42 73 47 0 4 5 5 12 1 7 -4 8 -3 4 4
-4 7 -8 12 -9 11 -1 0 -22 -13 -47 -28z"/>
</g>
</svg>
