<?xml version="1.0" standalone="no"?>
<!DOCTYPE svg PUBLIC "-//W3C//DTD SVG 20010904//EN"
 "http://www.w3.org/TR/2001/REC-SVG-20010904/DTD/svg10.dtd">
<svg version="1.0" xmlns="http://www.w3.org/2000/svg"
 width="821.000000pt" height="629.000000pt" viewBox="0 0 821.000000 629.000000"
 preserveAspectRatio="xMidYMid meet">

<g transform="translate(0.000000,629.000000) scale(0.100000,-0.100000)"
fill="#000000" stroke="none">
<path d="M3865 5666 c-350 -58 -632 -203 -886 -456 -231 -230 -370 -489 -440
-820 -33 -153 -33 -448 -1 -606 101 -502 408 -907 862 -1134 442 -221 978
-221 1420 0 453 227 762 632 862 1132 30 152 32 432 4 583 -61 328 -209 610
-445 846 -231 231 -484 369 -803 440 -120 27 -450 35 -573 15z m455 -127 c603
-80 1099 -548 1232 -1162 30 -139 32 -438 4 -567 -71 -327 -214 -585 -442
-798 -202 -190 -441 -313 -724 -373 -150 -32 -410 -32 -560 0 -542 115 -963
493 -1123 1006 -52 168 -62 237 -61 440 0 157 4 208 22 292 98 454 388 827
797 1028 266 130 549 174 855 134z"/>
<path d="M4240 5437 c-39 -20 -77 -97 -110 -224 -9 -36 -15 -43 -35 -43 -16 0
-40 15 -63 38 -40 40 -106 77 -122 67 -5 -3 -12 -27 -15 -53 -15 -118 -6 -105
-108 -147 -270 -111 -395 -202 -433 -317 -14 -43 -26 -56 -104 -114 -110 -80
-209 -186 -266 -284 -24 -41 -44 -79 -44 -84 0 -5 53 43 118 106 119 115 226
199 312 243 37 19 47 30 58 66 20 66 68 135 122 174 97 71 413 210 524 231 41
7 41 6 19 -53 -8 -21 24 -15 51 10 18 15 34 49 52 112 55 194 99 219 190 107
86 -105 144 -250 164 -404 11 -89 6 -102 -37 -95 -31 6 -29 -2 12 -50 40 -47
124 -93 170 -93 51 0 75 24 75 76 l0 45 60 -42 c123 -86 203 -193 234 -312
l14 -52 8 40 c4 22 8 78 7 125 0 135 -39 241 -120 331 -20 22 -31 39 -27 39
22 0 112 -28 142 -44 19 -10 36 -16 38 -13 7 6 -118 120 -172 158 -26 17 -95
56 -153 85 -92 46 -115 62 -170 125 -108 120 -295 258 -351 259 -8 0 -26 -6
-40 -13z"/>
<path d="M4294 5094 c-10 -14 -19 -47 -22 -73 -4 -45 -2 -49 29 -71 19 -13 60
-48 93 -79 l58 -56 -7 59 c-10 82 -29 143 -64 199 -35 54 -62 61 -87 21z"/>
<path d="M3847 4965 c-10 -14 -46 -39 -80 -56 -74 -37 -123 -73 -137 -100 -11
-20 -10 -19 32 2 23 12 83 32 133 46 84 22 165 62 165 82 0 15 -36 41 -66 46
-23 4 -33 0 -47 -20z"/>
<path d="M4048 4975 c37 -27 24 -54 -48 -105 -39 -27 -72 -60 -82 -80 -30 -62
-33 -63 -122 -56 -64 5 -85 4 -101 -8 -30 -23 -76 -20 -82 4 -6 24 -19 26 -27
4 -12 -32 -5 -64 20 -88 l27 -24 -27 -34 c-25 -34 -32 -70 -20 -102 7 -17 34
-22 34 -6 0 5 16 28 36 50 26 28 42 39 55 35 25 -8 78 16 124 56 36 32 37 32
30 9 -36 -117 -147 -220 -236 -220 -26 0 -29 -2 -19 -14 16 -21 113 -39 160
-31 42 7 90 38 90 58 0 25 53 123 100 187 58 79 62 98 20 106 l-30 6 23 18
c12 9 64 39 115 65 101 52 123 76 102 115 -13 23 -73 54 -130 65 -35 7 -35 7
-12 -10z m-228 -289 c0 -2 -14 -20 -32 -40 -30 -35 -58 -47 -58 -26 0 6 7 10
15 10 10 0 15 10 15 30 0 27 3 30 30 30 17 0 30 -2 30 -4z"/>
<path d="M4348 4713 c23 -50 27 -71 27 -148 -1 -98 -12 -142 -86 -328 -71
-179 -65 -240 39 -396 71 -105 90 -143 101 -205 l7 -41 26 45 c70 120 63 222
-28 401 -32 64 -45 135 -28 152 4 4 29 -13 55 -37 27 -24 62 -49 78 -54 l30
-11 -20 32 c-33 54 -41 106 -43 262 -1 144 -2 152 -30 206 -30 60 -105 152
-136 169 -17 9 -15 3 8 -47z"/>
<path d="M4114 4700 c-54 -21 -84 -103 -84 -228 0 -106 -3 -112 -59 -105 -63
7 -100 -13 -151 -81 -42 -58 -63 -70 -123 -68 -55 3 -70 14 -107 84 -19 35
-41 68 -49 75 -20 16 -66 15 -111 -1 l-35 -13 43 -7 c55 -10 72 -35 72 -106 0
-66 24 -117 68 -143 35 -20 63 -23 148 -12 56 7 66 5 114 -21 30 -16 66 -46
81 -67 l28 -38 6 35 c9 48 -25 118 -71 146 -41 26 -42 32 -8 59 52 41 99 20
140 -61 42 -83 55 -137 61 -257 7 -129 13 -128 55 4 40 127 26 269 -38 380
l-22 40 19 75 c22 86 70 194 102 229 12 13 39 31 60 41 l38 17 -41 17 c-43 17
-102 20 -136 6z"/>
<path d="M5244 4664 c16 -42 46 -223 56 -335 17 -206 -13 -444 -75 -584 l-22
-50 -6 50 c-4 28 -18 96 -32 151 -33 137 -46 256 -36 327 4 31 5 57 2 57 -12
0 -50 -70 -66 -121 -13 -43 -18 -105 -20 -294 -5 -321 -23 -411 -117 -562 -35
-55 -174 -200 -184 -191 -2 2 7 35 20 74 35 103 56 243 56 373 l0 115 33 -32
c18 -18 36 -32 39 -32 3 0 12 31 18 69 19 105 8 306 -22 409 -28 93 -26 95 47
57 l47 -26 -7 68 c-14 131 -69 224 -174 295 -25 17 -59 43 -75 57 l-29 26 7
-30 c4 -16 32 -70 61 -120 46 -77 76 -145 64 -145 -2 0 -26 7 -53 15 -27 8
-64 15 -83 15 l-34 0 25 -33 c39 -51 94 -175 116 -261 29 -116 26 -266 -6
-215 -10 16 -105 59 -132 59 -22 0 -22 0 -6 -32 60 -117 69 -334 17 -455 l-16
-38 -12 50 c-6 28 -17 61 -24 73 -12 23 -13 22 -40 -35 -39 -81 -120 -153
-200 -178 l-24 -7 21 34 c100 161 -12 354 -195 335 -123 -13 -223 -126 -279
-317 l-22 -75 -57 -3 c-126 -7 -234 60 -221 137 9 60 36 85 97 94 112 15 269
119 314 208 36 68 12 171 -56 238 -53 54 -130 84 -224 89 -108 5 -159 -16
-305 -123 -63 -47 -125 -88 -136 -91 -29 -8 -96 12 -128 37 -31 24 -86 128
-86 161 0 13 20 63 45 112 25 48 45 98 45 109 0 11 -3 18 -6 14 -3 -3 -28 3
-55 14 -67 26 -104 24 -157 -7 l-45 -27 6 39 6 39 -25 -30 c-13 -16 -29 -47
-36 -67 -10 -34 -8 -41 15 -77 14 -22 47 -56 72 -78 33 -27 57 -61 86 -121 53
-110 108 -165 186 -188 35 -10 72 -29 93 -49 48 -44 91 -72 121 -80 l26 -6 -5
104 -5 104 55 42 c60 45 124 71 172 71 62 -1 176 -74 136 -88 -37 -12 -76 -71
-103 -153 -42 -132 -79 -158 -171 -120 -28 11 -55 21 -59 21 -30 0 45 -263 89
-311 50 -56 123 -81 285 -99 52 -6 102 -13 112 -16 15 -5 17 2 17 48 0 140 81
306 172 354 37 19 98 17 124 -4 77 -62 57 -194 -49 -324 -43 -52 -45 -57 -27
-63 47 -15 225 27 318 74 40 20 42 21 42 3 0 -48 -69 -204 -136 -309 -23 -36
-29 -53 -20 -53 34 0 206 64 297 111 208 107 367 251 491 444 63 97 91 155
131 271 108 311 92 659 -43 958 -17 36 -33 66 -36 66 -3 0 -3 -7 0 -16z
m-2190 -503 c3 -4 -3 -16 -14 -26 -25 -23 -25 -47 0 -70 21 -19 27 -60 9 -70
-11 -7 -119 95 -119 113 0 31 109 78 124 53z m346 -443 c0 -18 3 -51 6 -73 l7
-40 -42 40 c-22 21 -41 45 -41 51 0 13 47 54 61 54 5 0 9 -15 9 -32z m494 2
c54 -20 17 -91 -71 -138 l-61 -32 9 37 c5 21 9 41 9 45 0 4 16 4 35 1 34 -5
35 -5 35 26 0 18 -5 41 -10 52 -9 16 -7 19 9 19 11 0 31 -4 45 -10z m-318
-266 c30 -8 30 -15 0 -43 l-24 -22 -16 22 c-21 31 -21 63 0 55 9 -3 27 -9 40
-12z"/>
<path d="M3309 4294 c-28 -18 -62 -64 -78 -106 -9 -23 -2 -19 43 25 29 29 67
59 84 66 18 8 32 17 32 22 0 15 -53 10 -81 -7z"/>
<path d="M3343 4190 c-42 -25 -98 -101 -123 -169 -23 -59 -20 -80 4 -34 24 47
106 132 147 153 21 11 53 20 70 20 l32 0 -23 25 c-28 30 -64 32 -107 5z"/>
<path d="M3378 4060 c-53 -35 -115 -119 -124 -170 l-7 -35 50 47 c89 82 162
107 198 68 24 -26 29 -25 43 5 18 40 14 64 -14 90 -38 35 -88 33 -146 -5z"/>
<path d="M3950 1600 l0 -560 25 -10 c59 -23 208 -42 320 -42 316 0 473 114
505 367 23 182 -45 331 -184 402 -95 48 -245 64 -353 37 l-23 -6 0 186 0 186
-145 0 -145 0 0 -560z m486 -7 c17 -13 40 -40 50 -60 22 -46 30 -163 15 -220
-26 -97 -118 -153 -222 -137 l-39 7 0 212 c0 161 3 215 13 219 6 3 44 4 82 3
54 -2 77 -7 101 -24z"/>
<path d="M6720 1580 l0 -580 140 0 140 0 0 196 c0 113 4 194 9 192 5 -1 73
-90 151 -195 l142 -193 160 0 c95 0 158 4 156 9 -1 5 -70 99 -153 207 -82 109
-152 201 -153 206 -2 5 58 86 134 181 75 94 141 178 147 185 7 9 -25 12 -155
12 l-165 0 -134 -172 -134 -173 -3 353 -2 352 -140 0 -140 0 0 -580z"/>
<path d="M745 2048 c-9 -44 -145 -999 -145 -1023 l0 -25 135 0 c132 0 135 1
139 23 3 12 21 162 41 332 19 171 39 323 43 338 6 24 25 -22 116 -280 60 -169
118 -332 128 -360 l19 -53 89 0 c75 0 91 3 98 18 5 9 63 168 127 352 65 184
121 339 125 343 4 4 22 -117 40 -270 18 -153 38 -314 44 -358 l11 -80 138 -3
c75 -1 137 1 137 5 0 4 -34 241 -75 526 -41 285 -75 522 -75 527 0 6 -69 10
-172 10 l-173 0 -110 -325 c-75 -221 -112 -319 -118 -309 -5 8 -46 126 -92
262 -46 136 -93 275 -105 310 l-22 62 -169 0 c-167 0 -169 0 -174 -22z"/>
<path d="M2365 1814 c-48 -7 -219 -46 -232 -53 -8 -4 -2 -28 21 -81 37 -85 28
-82 154 -55 53 11 113 16 167 14 72 -4 87 -7 109 -28 18 -17 26 -35 26 -57 l0
-32 -77 -6 c-189 -16 -320 -53 -386 -107 -98 -81 -105 -228 -16 -318 73 -72
185 -102 389 -103 135 0 219 10 318 38 l52 15 0 267 c0 313 -6 347 -73 416
-65 67 -132 88 -292 91 -71 2 -143 1 -160 -1z m245 -548 l0 -104 -57 -7 c-151
-17 -258 65 -193 147 10 14 32 30 47 37 28 11 123 27 176 30 l27 1 0 -104z"/>
<path d="M5075 1804 c-92 -16 -175 -42 -175 -54 0 -16 63 -150 71 -150 4 0 45
9 91 20 46 11 118 20 161 20 116 0 167 -28 167 -93 0 -23 -3 -24 -117 -35
-199 -20 -336 -68 -389 -137 -37 -49 -50 -113 -36 -177 23 -100 98 -161 239
-194 126 -30 441 -15 547 26 l26 10 0 278 c0 226 -3 287 -16 324 -29 86 -110
145 -229 167 -79 15 -242 12 -340 -5z m313 -536 l-3 -102 -44 -9 c-136 -27
-259 46 -219 130 22 46 108 76 241 82 l28 1 -3 -102z"/>
<path d="M5975 1805 c-44 -7 -108 -20 -143 -30 l-62 -18 2 -376 3 -376 145 0
145 0 3 302 2 302 38 11 c73 20 149 5 182 -37 19 -24 20 -39 20 -304 l0 -279
145 0 145 0 0 308 c0 277 -2 311 -19 347 -52 112 -190 166 -421 164 -58 -1
-141 -7 -185 -14z"/>
<path d="M2880 1791 c0 -5 77 -180 171 -388 94 -208 173 -383 176 -390 3 -6
-14 -54 -38 -105 -23 -51 -54 -121 -70 -156 l-28 -63 155 3 155 3 245 544
c134 300 244 548 244 553 0 5 -71 7 -157 6 l-158 -3 -94 -279 c-52 -154 -96
-276 -98 -270 -2 5 -46 131 -97 279 l-93 270 -157 3 c-94 1 -156 -1 -156 -7z"/>
</g>
</svg>
